<svg width="1600" height="2000" viewBox="0 0 1600 2000" fill="none" xmlns="http://www.w3.org/2000/svg">
  <rect width="1600" height="2000" fill="#0B0B0C"/>
  <circle cx="1170" cy="448" r="360" fill="url(#paint0_radial_1_2)" fill-opacity="0.9"/>
  <circle cx="522" cy="1168" r="430" fill="url(#paint1_radial_1_2)" fill-opacity="0.88"/>
  <circle cx="1112" cy="1380" r="430" fill="url(#paint2_radial_1_2)" fill-opacity="0.52"/>
  <path d="M250 420C390 340 538 326 640 366C734 402 744 486 678 556C612 626 460 700 354 806C260 900 220 1042 268 1166C322 1308 470 1386 580 1460C708 1548 804 1660 782 1768" stroke="#E4BE7A" stroke-opacity="0.24" stroke-width="2.5"/>
  <path d="M1052 226C1170 250 1278 324 1308 442C1338 562 1276 692 1172 788C1068 884 926 952 838 1078C754 1198 726 1368 818 1498C914 1634 1128 1714 1320 1712" stroke="#F6D7A3" stroke-opacity="0.22" stroke-width="2"/>
  <path d="M0 1544C230 1458 402 1450 516 1518C690 1620 694 1858 922 1936C1048 1978 1270 1950 1600 1810V2000H0V1544Z" fill="url(#paint3_linear_1_2)" fill-opacity="0.58"/>
  <defs>
    <radialGradient id="paint0_radial_1_2" cx="0" cy="0" r="1" gradientUnits="userSpaceOnUse" gradientTransform="translate(1170 448) rotate(90) scale(360)">
      <stop stop-color="#D9AA66"/>
      <stop offset="1" stop-color="#D9AA66" stop-opacity="0"/>
    </radialGradient>
    <radialGradient id="paint1_radial_1_2" cx="0" cy="0" r="1" gradientUnits="userSpaceOnUse" gradientTransform="translate(522 1168) rotate(90) scale(430)">
      <stop stop-color="#44555D"/>
      <stop offset="1" stop-color="#44555D" stop-opacity="0"/>
    </radialGradient>
    <radialGradient id="paint2_radial_1_2" cx="0" cy="0" r="1" gradientUnits="userSpaceOnUse" gradientTransform="translate(1112 1380) rotate(90) scale(430)">
      <stop stop-color="#7B4B37"/>
      <stop offset="1" stop-color="#7B4B37" stop-opacity="0"/>
    </radialGradient>
    <linearGradient id="paint3_linear_1_2" x1="800" y1="1450" x2="800" y2="2000" gradientUnits="userSpaceOnUse">
      <stop stop-color="#7A4A2D" stop-opacity="0"/>
      <stop offset="1" stop-color="#0B0B0C"/>
    </linearGradient>
  </defs>
</svg>
