<svg width="1600" height="2000" viewBox="0 0 1600 2000" fill="none" xmlns="http://www.w3.org/2000/svg">
  <rect width="1600" height="2000" fill="#090A0D"/>
  <rect x="76" y="84" width="1448" height="1832" rx="48" stroke="#5C5C67" stroke-opacity="0.18" stroke-width="2"/>
  <path d="M120 1560C240 1474 420 1412 604 1430C828 1452 946 1606 1130 1654C1288 1694 1436 1648 1532 1558" stroke="#C8A266" stroke-opacity="0.25" stroke-width="2.2"/>
  <path d="M96 644C210 540 380 466 550 466C748 466 894 576 1022 658C1154 744 1260 804 1406 782C1462 774 1512 756 1550 732" stroke="#E6C795" stroke-opacity="0.2" stroke-width="2"/>
  <path d="M173 346C330 232 518 198 668 240C840 290 952 430 1094 500C1208 556 1360 578 1526 510" stroke="#7A8791" stroke-opacity="0.22" stroke-width="2"/>
  <path d="M94 936C206 886 320 866 414 892C530 924 594 1012 654 1086C724 1172 792 1264 936 1310C1084 1356 1268 1340 1508 1226" stroke="#B46A52" stroke-opacity="0.18" stroke-width="2"/>
  <circle cx="1222" cy="396" r="290" fill="url(#paint0_radial_2_2)"/>
  <circle cx="454" cy="1328" r="390" fill="url(#paint1_radial_2_2)"/>
  <circle cx="1184" cy="1404" r="320" fill="url(#paint2_radial_2_2)"/>
  <defs>
    <radialGradient id="paint0_radial_2_2" cx="0" cy="0" r="1" gradientUnits="userSpaceOnUse" gradientTransform="translate(1222 396) rotate(90) scale(290)">
      <stop stop-color="#C58A3F" stop-opacity="0.72"/>
      <stop offset="1" stop-color="#C58A3F" stop-opacity="0"/>
    </radialGradient>
    <radialGradient id="paint1_radial_2_2" cx="0" cy="0" r="1" gradientUnits="userSpaceOnUse" gradientTransform="translate(454 1328) rotate(90) scale(390)">
      <stop stop-color="#31414C" stop-opacity="0.84"/>
      <stop offset="1" stop-color="#31414C" stop-opacity="0"/>
    </radialGradient>
    <radialGradient id="paint2_radial_2_2" cx="0" cy="0" r="1" gradientUnits="userSpaceOnUse" gradientTransform="translate(1184 1404) rotate(90) scale(320)">
      <stop stop-color="#5E2D23" stop-opacity="0.7"/>
      <stop offset="1" stop-color="#5E2D23" stop-opacity="0"/>
    </radialGradient>
  </defs>
</svg>
