<svg width="240" height="240" viewBox="0 0 240 240" fill="none" xmlns="http://www.w3.org/2000/svg">
  <rect width="240" height="240" fill="#0A0A0A"/>
  <g opacity="0.08" fill="#F4E6C8">
    <circle cx="22" cy="18" r="1"/><circle cx="78" cy="34" r="1"/><circle cx="130" cy="28" r="1"/><circle cx="180" cy="22" r="1"/><circle cx="214" cy="36" r="1"/>
    <circle cx="30" cy="72" r="1"/><circle cx="64" cy="56" r="1"/><circle cx="110" cy="78" r="1"/><circle cx="168" cy="60" r="1"/><circle cx="200" cy="82" r="1"/>
    <circle cx="20" cy="114" r="1"/><circle cx="90" cy="108" r="1"/><circle cx="126" cy="122" r="1"/><circle cx="188" cy="110" r="1"/><circle cx="226" cy="128" r="1"/>
    <circle cx="44" cy="154" r="1"/><circle cx="100" cy="146" r="1"/><circle cx="154" cy="166" r="1"/><circle cx="198" cy="152" r="1"/><circle cx="228" cy="178" r="1"/>
    <circle cx="28" cy="194" r="1"/><circle cx="82" cy="208" r="1"/><circle cx="138" cy="196" r="1"/><circle cx="190" cy="212" r="1"/><circle cx="216" cy="226" r="1"/>
  </g>
</svg>
